<svg xmlns="http://www.w3.org/2000/svg" xmlns:xlink="http://www.w3.org/1999/xlink" viewBox="0 0 32.37 26.21"><defs><style>.cls-1{fill:none;}.cls-2{fill:#f28e00;}.cls-3{clip-path:url(#clip-path);}.cls-4{clip-path:url(#clip-path-2);}</style><clipPath id="clip-path"><rect class="cls-1" x="-137.84" y="150.98" width="649.99" height="294"/></clipPath><clipPath id="clip-path-2"><rect class="cls-1" x="-479.71" y="-329.1" width="649.99" height="294"/></clipPath></defs><title>SMART PREDLOG IZGLED</title><g id="Layer_4" data-name="Layer 4"><g id="_Group_" data-name="&lt;Group&gt;"><path id="_Compound_Path_" data-name="&lt;Compound Path&gt;" class="cls-2" d="M17.94,0H.51A.55.55,0,0,0,0,.56V21.82a.55.55,0,0,0,.51.56H13.39v3.24c0,.39.45.75.77.49l1.09-.89.8-.65.25-.18.14.11a9.86,9.86,0,0,0,.77.63l1.19,1a.38.38,0,0,0,.58-.05.53.53,0,0,0,.2-.43V22.38H31.86a.45.45,0,0,0,.35-.15l0,0h0a.54.54,0,0,0,.14-.38V.56A.55.55,0,0,0,31.86,0H17.94ZM13.39,21.26H1V1.13H13.39Zm4.76,3.24-1.6-1.31a.46.46,0,0,0-.52,0L14.41,24.5V1.13h3.73Zm1-23.37H31.35V21.26H19.17Z"/><path id="_Path_" data-name="&lt;Path&gt;" class="cls-2" d="M3.36,6.41h7.26c.44,0,.44-.75,0-.75H3.36C2.92,5.66,2.92,6.41,3.36,6.41Z"/><path id="_Path_2" data-name="&lt;Path&gt;" class="cls-2" d="M3.36,9.56h7.26c.44,0,.44-.75,0-.75H3.36C2.92,8.81,2.92,9.56,3.36,9.56Z"/><path id="_Path_3" data-name="&lt;Path&gt;" class="cls-2" d="M3.36,12.72h7.26c.44,0,.44-.75,0-.75H3.36C2.92,12,2.92,12.72,3.36,12.72Z"/><path id="_Path_4" data-name="&lt;Path&gt;" class="cls-2" d="M3.36,15.87h7.26c.44,0,.44-.75,0-.75H3.36C2.92,15.12,2.92,15.87,3.36,15.87Z"/><path id="_Path_5" data-name="&lt;Path&gt;" class="cls-2" d="M29.05,5.66H21.79c-.44,0-.44.75,0,.75h7.26C29.49,6.41,29.49,5.66,29.05,5.66Z"/><path id="_Path_6" data-name="&lt;Path&gt;" class="cls-2" d="M29.05,8.81H21.79c-.44,0-.44.75,0,.75h7.26C29.49,9.56,29.49,8.81,29.05,8.81Z"/><path id="_Path_7" data-name="&lt;Path&gt;" class="cls-2" d="M29.05,12H21.79c-.44,0-.44.75,0,.75h7.26C29.49,12.72,29.49,12,29.05,12Z"/><path id="_Path_8" data-name="&lt;Path&gt;" class="cls-2" d="M29.05,15.12H21.79c-.44,0-.44.75,0,.75h7.26C29.49,15.87,29.49,15.12,29.05,15.12Z"/></g><g class="cls-3"><image width="1499" height="1000" transform="translate(-214.95 -20.96) scale(0.62)" xlink:href="C:\Users\Zoran\Downloads\stockvault-white-towel128034.jpg"/></g><g class="cls-4"><image width="686" height="350" transform="translate(-557.34 -369.45) scale(1.36)" xlink:href="../midel hrs/home_pg_ptac.png"/></g></g></svg>