<svg xmlns="http://www.w3.org/2000/svg" xmlns:xlink="http://www.w3.org/1999/xlink" viewBox="0 0 34.24 22.72"><defs><style>.cls-1{fill:none;}.cls-2{fill:#f28e00;}.cls-3{clip-path:url(#clip-path);}</style><clipPath id="clip-path"><rect class="cls-1" x="-136.57" y="-330.85" width="649.99" height="294"/></clipPath></defs><title>SMART PREDLOG IZGLED</title><g id="Layer_4" data-name="Layer 4"><g id="_Group_" data-name="&lt;Group&gt;"><path id="_Compound_Path_" data-name="&lt;Compound Path&gt;" class="cls-2" d="M34.24,19.5c0-.2.13-5-2.88-7.77a.59.59,0,0,0-.76,0s-3.54,2.66-6.8,0a.59.59,0,0,0-.76,0,8.88,8.88,0,0,0-1.86,2.56.59.59,0,0,0-.6.07c-.14.11-3.56,2.65-6.8,0a.59.59,0,0,0-.55-.1,7.89,7.89,0,0,0-1.8-2.51.59.59,0,0,0-.76,0s-3.54,2.66-6.8,0a.59.59,0,0,0-.76,0A10.72,10.72,0,0,0,0,19.47a.59.59,0,0,0,.59.6h9.52a12.64,12.64,0,0,0-.2,2,.59.59,0,0,0,.59.6H23.63a.59.59,0,0,0,.59-.57,12.35,12.35,0,0,0-.15-2.07h9.58A.59.59,0,0,0,34.24,19.5Zm-23.86-.61H1.21a10,10,0,0,1,2.34-5.94,6.72,6.72,0,0,0,7.4,0,7.16,7.16,0,0,1,1.36,2.2A10.69,10.69,0,0,0,10.38,18.88Zm.74,2.65a10,10,0,0,1,2.34-5.94,6.72,6.72,0,0,0,7.4,0,9.88,9.88,0,0,1,2.16,6Zm12.71-2.65a9.62,9.62,0,0,0-1.76-3.73,9.11,9.11,0,0,1,1.41-2.22,6.72,6.72,0,0,0,7.4,0,9.88,9.88,0,0,1,2.16,6Z"/><path id="_Compound_Path_2" data-name="&lt;Compound Path&gt;" class="cls-2" d="M27.09,0a5.61,5.61,0,0,0-5.56,4.88,5.59,5.59,0,0,0-8.43-.58,5.87,5.87,0,0,0-.41.46,5.61,5.61,0,1,0-5.54,6.47h0a5.57,5.57,0,0,0,4-1.65,5.81,5.81,0,0,0,.41-.46,5.61,5.61,0,0,0,5.54,4.75h0A5.61,5.61,0,0,0,22.62,9a5.6,5.6,0,0,0,4.46,2.23h0A5.61,5.61,0,1,0,27.09,0ZM10.28,8.74A4.39,4.39,0,0,1,7.15,10h0a4.43,4.43,0,1,1,3.13-1.3Zm9.91,2.65a4.39,4.39,0,0,1-3.13,1.3h0a4.43,4.43,0,1,1,3.13-1.3Zm10-2.65A4.39,4.39,0,0,1,27.09,10h0a4.43,4.43,0,1,1,3.13-1.3Z"/></g><g class="cls-3"><image width="686" height="350" transform="translate(-214.2 -371.19) scale(1.36)" xlink:href="../midel hrs/home_pg_ptac.png"/></g></g></svg>