<svg xmlns="http://www.w3.org/2000/svg" xmlns:xlink="http://www.w3.org/1999/xlink" viewBox="0 0 9.13 29.94"><defs><style>.cls-1{fill:none;}.cls-2{fill:#f28e00;}.cls-3{clip-path:url(#clip-path);}</style><clipPath id="clip-path"><rect class="cls-1" x="-833.24" y="-15.2" width="649.99" height="294"/></clipPath></defs><title>SMART PREDLOG IZGLED</title><g id="Layer_4" data-name="Layer 4"><path id="_Compound_Path_" data-name="&lt;Compound Path&gt;" class="cls-2" d="M1.55,22a4.56,4.56,0,1,0,6,0V.72A.72.72,0,0,0,6.86,0H2.27a.72.72,0,0,0-.72.72ZM6.14,1.44V21.1A4.48,4.48,0,0,0,3,21.1V1.44ZM4.56,28.5a3.13,3.13,0,1,1,3.13-3.13A3.13,3.13,0,0,1,4.56,28.5Z"/><g class="cls-3"><image width="686" height="350" transform="translate(-910.87 -55.55) scale(1.36)" xlink:href="../midel hrs/home_pg_ptac.png"/></g></g></svg>