<svg xmlns="http://www.w3.org/2000/svg" xmlns:xlink="http://www.w3.org/1999/xlink" viewBox="0 0 38.56 37.25"><defs><style>.cls-1{fill:none;}.cls-2{clip-path:url(#clip-path);}.cls-3{fill:#f28e00;}.cls-4{clip-path:url(#clip-path-2);}</style><clipPath id="clip-path"><rect class="cls-1" x="-476.65" y="157.76" width="649.99" height="294"/></clipPath><clipPath id="clip-path-2"><rect class="cls-1" x="-818.52" y="-322.32" width="649.99" height="294"/></clipPath></defs><title>SMART PREDLOG IZGLED</title><g id="Layer_4" data-name="Layer 4"><g class="cls-2"><image width="1499" height="1000" transform="translate(-553.76 -14.17) scale(0.62)" xlink:href="C:\Users\Zoran\Downloads\stockvault-white-towel128034.jpg"/></g><path id="_Compound_Path_" data-name="&lt;Compound Path&gt;" class="cls-3" d="M34,6.11h-7.1V10.6H34Zm-2,.6L30.42,8,28.83,6.71ZM33.37,10h-5.9V6.71h.41l2.54,2,2.54-2h.41Z"/><path id="_Compound_Path_2" data-name="&lt;Compound Path&gt;" class="cls-3" d="M17.12,31.36a4.94,4.94,0,0,0,1.43,3,.52.52,0,0,0,.37.15l.16,0a.52.52,0,0,0,.35-.4A1.58,1.58,0,0,1,21,32.77h2.59a1.57,1.57,0,0,1,1.47,1,.52.52,0,0,0,.89.14,4.94,4.94,0,0,0-3.37-8l-.51,0a5,5,0,0,0-4.93,5.46ZM22,32a1.88,1.88,0,1,1,1.87-1.88A1.88,1.88,0,0,1,22,32Zm-2.9-3.8A3.92,3.92,0,0,1,22,26.93l.4,0a3.91,3.91,0,0,1,3.08,5.67,2.59,2.59,0,0,0-1.61-.86,2.48,2.48,0,1,0-3.67.08A2.6,2.6,0,0,0,18.76,33a3.92,3.92,0,0,1,.39-4.75Z"/><path id="_Compound_Path_3" data-name="&lt;Compound Path&gt;" class="cls-3" d="M4.2,21.5a.52.52,0,0,0,.88-.37v-.46a3.14,3.14,0,0,1,2.79-3.12h0l.34,0h4.51a3.15,3.15,0,0,1,3.14,3.14v.46a.52.52,0,0,0,.88.37A8.94,8.94,0,1,0,1.53,15.14,8.88,8.88,0,0,0,4.2,21.5Zm6.76-5H10a3.44,3.44,0,1,1,1,0Zm-.48-9.26a7.91,7.91,0,0,1,7.9,7.9,7.83,7.83,0,0,1-1.55,4.7,4.19,4.19,0,0,0-3.69-3.33,4.34,4.34,0,1,0-5.31,0h-.1a4.17,4.17,0,0,0-3.59,3.31,7.83,7.83,0,0,1-1.55-4.7A7.91,7.91,0,0,1,10.47,7.24Z"/><path id="_Compound_Path_4" data-name="&lt;Compound Path&gt;" class="cls-3" d="M30.42,14.85a6.7,6.7,0,1,0-6.7-6.7A6.71,6.71,0,0,0,30.42,14.85Zm0-12.36a5.66,5.66,0,1,1-5.66,5.66A5.67,5.67,0,0,1,30.42,2.49Z"/><path id="_Compound_Path_5" data-name="&lt;Compound Path&gt;" class="cls-3" d="M0,15.14a10.46,10.46,0,0,0,15,9.45l2,2.28A6.4,6.4,0,0,0,21.4,37.22a6.42,6.42,0,0,0,5.4-2.07,6.4,6.4,0,0,0-4.1-10.67,6.47,6.47,0,0,0-3.77.79l-1.83-2A10.51,10.51,0,0,0,21,15.14a10.36,10.36,0,0,0-.3-2.46l2.48-.88a8.15,8.15,0,1,0-.87-3.65,8,8,0,0,0,.1,1.28l-2.6.92A10.47,10.47,0,0,0,0,15.14ZM10.47,5.71A9.48,9.48,0,0,1,19,11.21a.52.52,0,0,0,.64.27l3.45-1.22a.52.52,0,0,0,.33-.6A7.11,7.11,0,1,1,23.88,11a.52.52,0,0,0-.65-.28l-3.38,1.19a.52.52,0,0,0-.32.63A9.38,9.38,0,0,1,16,22.75a.52.52,0,0,0-.08.76l2.48,2.76a.52.52,0,0,0,.67.09,5.44,5.44,0,0,1,3.48-.86A5.37,5.37,0,0,1,22,36.21l-.55,0a5.37,5.37,0,0,1-3.45-8.92l.06-.06a.52.52,0,0,0,0-.69l-2.62-2.91a.52.52,0,0,0-.63-.11,9.3,9.3,0,0,1-4.38,1.09,9.44,9.44,0,0,1,0-18.88Z"/><g class="cls-4"><image width="686" height="350" transform="translate(-896.15 -362.66) scale(1.36)" xlink:href="../midel hrs/home_pg_ptac.png"/></g></g></svg>