<svg xmlns="http://www.w3.org/2000/svg" xmlns:xlink="http://www.w3.org/1999/xlink" viewBox="0 0 30.36 29.16"><defs><style>.cls-1{fill:none;}.cls-2{fill:#f28e00;}.cls-3{clip-path:url(#clip-path);}</style><clipPath id="clip-path"><rect class="cls-1" x="-822.62" y="-179.15" width="649.99" height="294"/></clipPath></defs><title>SMART PREDLOG IZGLED</title><g id="Layer_4" data-name="Layer 4"><path id="_Compound_Path_" data-name="&lt;Compound Path&gt;" class="cls-2" d="M29,27.66H18L21.58,24a.47.47,0,0,0,.18,0h0a.51.51,0,0,0,.28-.29l7.09-17,1-2.41a.57.57,0,0,0,0-.16A3.08,3.08,0,0,0,28.53.23a3.09,3.09,0,0,0-4,1.64l-7.09,17-1,2.41a.56.56,0,0,0,.11.58l0,1.37q0,.33,0,.65,0,1.88-.06,3.76H.59c-.78,0-.78,1.5,0,1.5H29C29.83,29.16,29.83,27.66,29,27.66Zm.22-24.42L25.83,1.81A2,2,0,0,1,29.27,3.24ZM24.55,4.71l.79-1.9,3.59,1.5L22.06,20.8l-.79,1.9-3.59-1.5ZM17.64,22.62l2.66,1.11-1.53,1.57-1.17-.49Q17.62,23.71,17.64,22.62Z"/><g class="cls-3"><image width="686" height="350" transform="translate(-900.25 -219.5) scale(1.36)" xlink:href="../midel hrs/home_pg_ptac.png"/></g></g></svg>