<svg xmlns="http://www.w3.org/2000/svg" viewBox="0 0 26.64 28.67"><defs><style>.cls-1{isolation:isolate;}.cls-2{mix-blend-mode:overlay;}.cls-3{fill:#f28e00;}</style></defs><title>SMART PREDLOG IZGLED</title><g class="cls-1"><g id="Layer_4" data-name="Layer 4"><path id="_Compound_Path_" data-name="&lt;Compound Path&gt;" class="cls-3" d="M0,21.4v6.28a1,1,0,0,0,1,1H25.65a1,1,0,0,0,1-1V21.4a1,1,0,0,0-1-1H23.22a1,1,0,0,0-1,1v2.85H4.41V21.4a1,1,0,0,0-1-1H1A1,1,0,0,0,0,21.4Zm1.2.21h2v3.24a.6.6,0,0,0,.6.6h19a.6.6,0,0,0,.6-.6V21.6h2v5.86H1.2Z"/><path id="_Compound_Path_2" data-name="&lt;Compound Path&gt;" class="cls-3" d="M9.51,4.19h7.61a1.06,1.06,0,0,0,1.06-1.06V1.06A1.06,1.06,0,0,0,17.13,0H9.51A1.06,1.06,0,0,0,8.46,1.06V3.13A1.06,1.06,0,0,0,9.51,4.19Zm.14-3H17V3H9.65Z"/><path id="_Compound_Path_3" data-name="&lt;Compound Path&gt;" class="cls-3" d="M8.39,9.89H4.5a1.52,1.52,0,0,0-1.42.78,1,1,0,0,0,.17,1.13L7.66,17h0l4.41,5.17a1.62,1.62,0,0,0,1.25.52h0a1.62,1.62,0,0,0,1.25-.52L23.39,11.8a1,1,0,0,0,.17-1.13,1.52,1.52,0,0,0-1.42-.78h-4V6.22a1,1,0,0,0-1-1H9.39a1,1,0,0,0-1,1Zm.6,1.2a.6.6,0,0,0,.6-.6V6.42h7.32v4.06a.6.6,0,0,0,.6.6h4.62a.65.65,0,0,1,.24,0L13.66,21.36a.5.5,0,0,1-.34.1h0a.5.5,0,0,1-.33-.1L8.58,16.19h0L4.26,11.13a.65.65,0,0,1,.24,0Z"/></g></g></svg>