<svg xmlns="http://www.w3.org/2000/svg" viewBox="0 0 29.52 33.56"><defs><style>.cls-1{isolation:isolate;}.cls-2{mix-blend-mode:overlay;}.cls-3{fill:#f28e00;}</style></defs><title>SMART PREDLOG IZGLED</title><g class="cls-1"><g id="Layer_4" data-name="Layer 4"><path id="_Compound_Path_" data-name="&lt;Compound Path&gt;" class="cls-3" d="M2.78,10.51a3.74,3.74,0,0,0-.32,5.28L17.09,32.3a3.74,3.74,0,0,0,5.28.32l1.36-1.2A3.74,3.74,0,0,0,24,26.13L9.41,9.62a3.74,3.74,0,0,0-5.24-.35L1.31,6A.75.75,0,0,0,.19,7l2.86,3.23Zm4-.94a2.52,2.52,0,0,1,1.75.85L23.15,26.93a2.55,2.55,0,0,1-.22,3.59l-1.36,1.2A2.55,2.55,0,0,1,18,31.5L3.35,15a2.55,2.55,0,0,1,.22-3.59l1.36-1.2a2.52,2.52,0,0,1,1.68-.64Z"/><path id="_Compound_Path_2" data-name="&lt;Compound Path&gt;" class="cls-3" d="M17.2,28.63a1.37,1.37,0,0,0,1,.46h.09a1.37,1.37,0,0,0,.91-.35l1.08-1a1.39,1.39,0,0,0,.12-2L9.54,13.62a1.39,1.39,0,0,0-2-.12l-1.08,1a1.39,1.39,0,0,0-.12,2ZM7.1,15.14l1.08-1a.48.48,0,0,1,.32-.12h0a.48.48,0,0,1,.33.16l1.19,1.35L8.25,17.17,7.05,15.83a.49.49,0,0,1,0-.69Zm12.54,12h0l-1.08,1a.49.49,0,0,1-.69,0L16.24,26.2l1.81-1.61,1.63,1.83a.49.49,0,0,1,0,.69Zm-7.28-8.95-1.81,1.61L9,18.07l1.81-1.61Zm2.43,2.74L13,22.51l-1.64-1.85,1.81-1.61Zm2.47,2.79L15.45,25.3l-1.68-1.89,1.81-1.61Z"/><path id="_Compound_Path_3" data-name="&lt;Compound Path&gt;" class="cls-3" d="M26.78,5.48A2.74,2.74,0,0,0,28.83.92h0a2.74,2.74,0,1,0-2.05,4.56Zm1.16-3.77h0a1.55,1.55,0,1,1-1.16-.52A1.55,1.55,0,0,1,27.93,1.72Z"/><path id="_Compound_Path_4" data-name="&lt;Compound Path&gt;" class="cls-3" d="M21,14.84a4.68,4.68,0,0,0,3.24-1.31l.22-.21-1.67-1.66-.21.2A2.35,2.35,0,1,1,21,7.78a2.33,2.33,0,0,1,1.59.63l.21.2L24.5,6.93l-.22-.21A4.71,4.71,0,1,0,21,14.84ZM21,6a4.07,4.07,0,0,1,2.6.94l-.83.84A2.9,2.9,0,0,0,21,7.19a2.94,2.94,0,1,0,1.77,5.29l.83.83a4.08,4.08,0,0,1-2.6.94A4.11,4.11,0,0,1,21,6Z"/></g></g></svg>