<svg xmlns="http://www.w3.org/2000/svg" xmlns:xlink="http://www.w3.org/1999/xlink" viewBox="0 0 581.85 374.76"><defs><style>.cls-1{fill:none;}.cls-2{isolation:isolate;}.cls-3{mix-blend-mode:overlay;}.cls-4{clip-path:url(#clip-path);}.cls-5{fill:url(#linear-gradient);}.cls-6{fill:url(#linear-gradient-2);}.cls-7{fill:url(#linear-gradient-3);}.cls-8{clip-path:url(#clip-path-2);}.cls-9{clip-path:url(#clip-path-3);}.cls-10{font-size:78.87px;font-family:BebasNeueBold, Bebas Neue;font-weight:700;}.cls-10,.cls-11,.cls-12{fill:#fff;}.cls-12{font-size:39.13px;font-family:Intro-Black, Intro Black;}.cls-13{letter-spacing:-0.01em;}.cls-14{letter-spacing:0em;}.cls-15{font-family:Intro-Book, Intro Book;}.cls-16{letter-spacing:-0.04em;}.cls-17{letter-spacing:-0.04em;}.cls-18{letter-spacing:-0.01em;}.cls-19{letter-spacing:-0.02em;}.cls-20{letter-spacing:-0.01em;}.cls-21{fill:#f28e00;}</style><clipPath id="clip-path"><rect class="cls-1" x="-1403.65" y="-223.76" width="1315" height="650.31"/></clipPath><linearGradient id="linear-gradient" x1="-3799.85" y1="1628.76" x2="-3799.85" y2="2469.37" gradientTransform="translate(-4040.94 2266.71) rotate(180)" gradientUnits="userSpaceOnUse"><stop offset="0.01" stop-color="#9d6614"/><stop offset="0.28" stop-color="#be7f28"/><stop offset="0.56" stop-color="#d89337"/><stop offset="0.8" stop-color="#e89f40"/><stop offset="1" stop-color="#eda343"/></linearGradient><linearGradient id="linear-gradient-2" x1="-3979.14" y1="1988.75" x2="-3979.14" y2="2391.95" xlink:href="#linear-gradient"/><linearGradient id="linear-gradient-3" x1="-3900.92" y1="1988.75" x2="-3900.92" y2="2391.95" xlink:href="#linear-gradient"/><clipPath id="clip-path-2"><path class="cls-1" d="M18.42,88.16-234.79-223.76h31.47L49.89,88.16Zm-46.75,0L-281.54-223.76H-313L-59.8,88.16ZM-827.12-223.76l527.89,650.31h65.6L-761.51-223.76Zm455.44,0h-328L-171.8,426.55h328Z"/></clipPath><clipPath id="clip-path-3"><rect class="cls-1" x="-875.96" y="-223.76" width="1095.77" height="658.34"/></clipPath></defs><title>benefits</title><g class="cls-2"><g id="Layer_2" data-name="Layer 2"><g class="cls-3"><g class="cls-4"><polygon class="cls-5" points="-141.15 596.43 186.87 596.43 -341.02 -53.88 -669.05 -53.88 -141.15 596.43"/><polygon class="cls-6" points="80.53 258.04 -172.67 -53.88 -204.14 -53.88 49.07 258.04 80.53 258.04"/><polygon class="cls-7" points="2.31 258.04 -250.89 -53.88 -282.36 -53.88 -29.15 258.04 2.31 258.04"/><g class="cls-8"><g class="cls-9"><image width="2560" height="1600" transform="translate(-875.96 -223.76) scale(0.43 0.41)" xlink:href="../brosura bms/Interior_Super_Hotel_Room_035130_.jpg"/></g></g></g></g></g><g id="Layer_4" data-name="Layer 4"><text class="cls-10" transform="translate(0 67.04)">BENEFITS</text><path class="cls-11" d="M192.8,153.61,208,130.48l14-19.87h13.82v1.71L200.4,162l39.43,55.57v1.71H225.7l-18-25.46-14.9-22.66h-.47L177.74,193.5l-18.16,25.77H145.29v-1.86L184.72,162l-35.39-49.52v-1.86h14l14.12,20.18,15.06,22.82Z"/><text class="cls-12" transform="translate(105.8 270.1)">SMA<tspan class="cls-13" x="85.45" y="0">R</tspan><tspan class="cls-14" x="112.29" y="0">TER</tspan><tspan class="cls-15"><tspan x="0" y="46.95">THAN</tspan><tspan class="cls-16" x="106.58" y="46.95"> </tspan><tspan class="cls-17" x="115.27" y="46.95">Y</tspan><tspan x="138.35" y="46.95">OU </tspan><tspan class="cls-18" x="207.84" y="46.95">C</tspan><tspan x="237.14" y="46.95">AN IM</tspan><tspan class="cls-19" x="352.1" y="46.95">A</tspan><tspan class="cls-20" x="378.78" y="46.95">G</tspan><tspan x="408.95" y="46.95">INE</tspan></tspan></text><path class="cls-11" d="M141.42,114.1,48,313.61H23.4l85.25-181.53H6V110.61H141.42Z"/><rect class="cls-21" y="80.98" width="222.89" height="4.84"/></g></g></svg>