<svg xmlns="http://www.w3.org/2000/svg" viewBox="0 0 356.98 60.2"><defs><style>.cls-1{fill:#fff;}.cls-2{fill:#f08d00;}.cls-3{fill:#96969a;}.cls-4{fill:#ecedee;}</style></defs><title>LOGO I ZNAK SMART SYSTEMS-03-04</title><g id="Layer_3" data-name="Layer 3"><path class="cls-1" d="M70.4,30.2c4.48,0,6.79,2.68,6.79,7.37v.92H72.83V37.28c0-2.09-.84-2.89-2.3-2.89s-2.31.8-2.31,2.89c0,6,9,7.16,9,15.54,0,4.69-2.34,7.37-6.87,7.37s-6.87-2.68-6.87-7.37V51h4.36v2.09c0,2.09.92,2.85,2.39,2.85s2.39-.75,2.39-2.85c0-6-9-7.16-9-15.54C63.62,32.88,65.92,30.2,70.4,30.2Z"/><path class="cls-1" d="M89.62,51.36l3.14-20.82h6.41V59.86H94.82v-21l-3.18,21H87.28L83.84,39.13V59.86h-4V30.54h6.41Z"/><path class="cls-1" d="M117.43,59.86h-4.65l-.8-5.32h-5.66l-.8,5.32H101.3L106,30.54h6.74Zm-10.52-9.3h4.44l-2.22-14.83Z"/><path class="cls-1" d="M129.2,59.86a9,9,0,0,1-.42-3.6V51.65c0-2.72-.92-3.73-3-3.73h-1.59V59.86h-4.61V30.54h7c4.78,0,6.83,2.22,6.83,6.74v2.3c0,3-1,5-3,5.95,2.3,1,3.06,3.18,3.06,6.24V56.3a8.65,8.65,0,0,0,.5,3.56Zm-5-25.13v9H126c1.72,0,2.77-.76,2.77-3.1V37.74c0-2.09-.71-3-2.35-3Z"/><path class="cls-1" d="M135.05,30.54H149.3v4.19h-4.82V59.86h-4.61V34.73h-4.82Z"/><path class="cls-1" d="M162.4,59.86h-4.61V30.54h4.61V43.11h5.24V30.54h4.69V59.86h-4.69V47.3H162.4Z"/><path class="cls-1" d="M175.3,37.58c0-4.69,2.47-7.37,7-7.37s7,2.68,7,7.37V52.82c0,4.69-2.47,7.37-7,7.37s-7-2.68-7-7.37Zm4.61,15.54c0,2.09.92,2.89,2.39,2.89s2.39-.8,2.39-2.89V37.28c0-2.09-.92-2.89-2.39-2.89s-2.39.8-2.39,2.89Z"/><path class="cls-1" d="M190.92,30.54h14.24v4.19h-4.82V59.86h-4.61V34.73h-4.82Z"/><path class="cls-1" d="M211.77,42.9h6.32v4.19h-6.32v8.59h8v4.19H207.17V30.54h12.57v4.19h-8Z"/><path class="cls-1" d="M222.58,30.54h4.61V55.67h7.58v4.19H222.58Z"/><path class="cls-1" d="M249.46,30.2c4.48,0,6.79,2.68,6.79,7.37v.92h-4.36V37.28c0-2.09-.84-2.89-2.3-2.89s-2.31.8-2.31,2.89c0,6,9,7.16,9,15.54,0,4.69-2.34,7.37-6.87,7.37s-6.87-2.68-6.87-7.37V51h4.36v2.09c0,2.09.92,2.85,2.39,2.85s2.39-.75,2.39-2.85c0-6-9-7.16-9-15.54C242.68,32.88,245,30.2,249.46,30.2Z"/><path class="cls-1" d="M350.15,30.2c4.48,0,6.79,2.68,6.79,7.37v.92h-4.36V37.28c0-2.09-.84-2.89-2.3-2.89s-2.31.8-2.31,2.89c0,6,9,7.16,9,15.54,0,4.69-2.34,7.37-6.87,7.37s-6.87-2.68-6.87-7.37V51h4.36v2.09c0,2.09.92,2.85,2.39,2.85s2.39-.75,2.39-2.85c0-6-9-7.16-9-15.54C343.37,32.88,345.67,30.2,350.15,30.2Z"/><path class="cls-1" d="M262.95,50.14l-5.82-19.61h4.82l3.52,13.36L269,30.54h4.4l-5.82,19.61v9.72h-4.61Z"/><path class="cls-1" d="M281.12,30.2c4.48,0,6.79,2.68,6.79,7.37v.92h-4.36V37.28c0-2.09-.84-2.89-2.3-2.89s-2.31.8-2.31,2.89c0,6,9,7.16,9,15.54,0,4.69-2.34,7.37-6.87,7.37s-6.87-2.68-6.87-7.37V51h4.36v2.09c0,2.09.92,2.85,2.39,2.85s2.39-.75,2.39-2.85c0-6-9-7.16-9-15.54C274.34,32.88,276.64,30.2,281.12,30.2Z"/><path class="cls-1" d="M289.24,30.54h14.24v4.19h-4.82V59.86h-4.61V34.73h-4.82Z"/><path class="cls-1" d="M310.1,42.9h6.32v4.19H310.1v8.59h8v4.19H305.49V30.54h12.57v4.19h-8Z"/><path class="cls-1" d="M330.66,51.36l3.14-20.82h6.41V59.86h-4.36v-21l-3.18,21h-4.36l-3.43-20.74V59.86h-4V30.54h6.41Z"/><rect class="cls-2" x="21.39" y="47.7" width="12.49" height="12.49" transform="translate(55.27 107.9) rotate(-180)"/><rect class="cls-1" x="3.29" y="47.7" width="12.49" height="12.49" transform="translate(19.08 107.9) rotate(-180)"/><rect class="cls-3" x="2.78" y="13.63" width="12.49" height="12.49" transform="translate(18.05 39.76) rotate(-180)"/><polygon class="cls-1" points="0 8.83 9.9 4.48 48.61 33.1 9.9 0 0 8.83"/><rect class="cls-4" x="21.39" y="30.67" width="12.49" height="12.49" transform="translate(55.27 73.83) rotate(-180)"/><rect class="cls-2" x="2.78" y="30.67" width="12.49" height="12.49" transform="translate(18.05 73.83) rotate(-180)"/></g></svg>