<svg xmlns="http://www.w3.org/2000/svg" viewBox="0 0 293.49 29.99"><defs><style>.cls-1{fill:#fff;}</style></defs><title>LOGO SMART SYSTEMS-03</title><g id="Layer_3" data-name="Layer 3"><path class="cls-1" d="M6.91,0C11.4,0,13.7,2.68,13.7,7.37v.92H9.34V7.08C9.34,5,8.5,4.19,7,4.19S4.73,5,4.73,7.08c0,6,9,7.16,9,15.54,0,4.69-2.34,7.37-6.87,7.37S0,27.31,0,22.62v-1.8H4.36v2.09c0,2.09.92,2.85,2.39,2.85S9.13,25,9.13,22.91c0-6-9-7.16-9-15.54C.13,2.68,2.43,0,6.91,0Z"/><path class="cls-1" d="M26.13,21.16,29.27.33h6.41V29.66H31.33v-21l-3.18,21H23.79L20.35,8.92V29.66h-4V.33h6.41Z"/><path class="cls-1" d="M53.94,29.66H49.29l-.8-5.32H42.84L42,29.66H37.81L42.51.33h6.74Zm-10.52-9.3h4.44L45.65,5.53Z"/><path class="cls-1" d="M65.71,29.66a9,9,0,0,1-.42-3.6V21.45c0-2.72-.92-3.73-3-3.73H60.68V29.66H56.07V.33h7c4.78,0,6.83,2.22,6.83,6.74v2.3c0,3-1,5-3,5.95,2.3,1,3.06,3.18,3.06,6.24V26.1a8.65,8.65,0,0,0,.5,3.56Zm-5-25.13v9h1.8c1.72,0,2.77-.76,2.77-3.1V7.54c0-2.09-.71-3-2.35-3Z"/><path class="cls-1" d="M71.56.33H85.81V4.52H81V29.66H76.38V4.52H71.56Z"/><path class="cls-1" d="M98.91,29.66H94.3V.33h4.61V12.9h5.24V.33h4.69V29.66h-4.69V17.09H98.91Z"/><path class="cls-1" d="M111.81,7.37c0-4.69,2.47-7.37,7-7.37s7,2.68,7,7.37V22.62c0,4.69-2.47,7.37-7,7.37s-7-2.68-7-7.37Zm4.61,15.54c0,2.09.92,2.89,2.39,2.89s2.39-.8,2.39-2.89V7.08c0-2.09-.92-2.89-2.39-2.89s-2.39.8-2.39,2.89Z"/><path class="cls-1" d="M127.43.33h14.24V4.52h-4.82V29.66h-4.61V4.52h-4.82Z"/><path class="cls-1" d="M148.29,12.69h6.32v4.19h-6.32v8.59h8v4.19H143.68V.33h12.57V4.52h-8Z"/><path class="cls-1" d="M159.09.33h4.61V25.47h7.58v4.19H159.09Z"/><path class="cls-1" d="M186,0c4.48,0,6.79,2.68,6.79,7.37v.92H188.4V7.08c0-2.09-.84-2.89-2.3-2.89s-2.31.8-2.31,2.89c0,6,9,7.16,9,15.54,0,4.69-2.34,7.37-6.87,7.37s-6.87-2.68-6.87-7.37v-1.8h4.36v2.09c0,2.09.92,2.85,2.39,2.85s2.39-.75,2.39-2.85c0-6-9-7.16-9-15.54C179.19,2.68,181.49,0,186,0Z"/><path class="cls-1" d="M286.66,0c4.48,0,6.79,2.68,6.79,7.37v.92h-4.36V7.08c0-2.09-.84-2.89-2.3-2.89s-2.31.8-2.31,2.89c0,6,9,7.16,9,15.54,0,4.69-2.34,7.37-6.87,7.37s-6.87-2.68-6.87-7.37v-1.8h4.36v2.09c0,2.09.92,2.85,2.39,2.85s2.39-.75,2.39-2.85c0-6-9-7.16-9-15.54C279.88,2.68,282.18,0,286.66,0Z"/><path class="cls-1" d="M199.46,19.94,193.63.33h4.82L202,13.7,205.49.33h4.4l-5.82,19.61v9.72h-4.61Z"/><path class="cls-1" d="M217.63,0c4.48,0,6.79,2.68,6.79,7.37v.92h-4.36V7.08c0-2.09-.84-2.89-2.3-2.89s-2.31.8-2.31,2.89c0,6,9,7.16,9,15.54,0,4.69-2.34,7.37-6.87,7.37s-6.87-2.68-6.87-7.37v-1.8h4.36v2.09c0,2.09.92,2.85,2.39,2.85s2.39-.75,2.39-2.85c0-6-9-7.16-9-15.54C210.85,2.68,213.15,0,217.63,0Z"/><path class="cls-1" d="M225.75.33H240V4.52h-4.82V29.66h-4.61V4.52h-4.82Z"/><path class="cls-1" d="M246.61,12.69h6.32v4.19h-6.32v8.59h8v4.19H242V.33h12.57V4.52h-8Z"/><path class="cls-1" d="M267.17,21.16,270.31.33h6.41V29.66h-4.36v-21l-3.18,21h-4.36L261.39,8.92V29.66h-4V.33h6.41Z"/></g></svg>